<svg width="24" height="24" viewBox="0 0 24 24" fill="none" xmlns="http://www.w3.org/2000/svg">
<g clip-path="url(#clip0_283_2071)">
<path d="M12.0002 24C18.6276 24 24.0002 18.6274 24.0002 12C24.0002 5.37258 18.6276 0 12.0002 0C5.37277 0 0.000183105 5.37258 0.000183105 12C0.000183105 18.6274 5.37277 24 12.0002 24Z" fill="#F0F0F0"/>
<path d="M2.4802 4.69336C1.53759 5.91975 0.826823 7.33327 0.412964 8.86884H6.65568L2.4802 4.69336Z" fill="#0052B4"/>
<path d="M23.5863 8.8688C23.1724 7.33327 22.4616 5.91975 21.519 4.69336L17.3436 8.8688H23.5863Z" fill="#0052B4"/>
<path d="M0.412964 15.1309C0.82687 16.6664 1.53764 18.0799 2.4802 19.3063L6.65554 15.1309H0.412964Z" fill="#0052B4"/>
<path d="M19.3057 2.48037C18.0793 1.53776 16.6658 0.826992 15.1302 0.413086V6.65576L19.3057 2.48037Z" fill="#0052B4"/>
<path d="M4.6936 21.5191C5.91999 22.4617 7.33351 23.1725 8.86904 23.5864V17.3438L4.6936 21.5191Z" fill="#0052B4"/>
<path d="M8.869 0.413086C7.33346 0.826992 5.91995 1.53776 4.6936 2.48032L8.869 6.65571V0.413086Z" fill="#0052B4"/>
<path d="M15.1302 23.5864C16.6658 23.1725 18.0793 22.4617 19.3056 21.5191L15.1302 17.3438V23.5864Z" fill="#0052B4"/>
<path d="M17.3436 15.1309L21.519 19.3063C22.4616 18.08 23.1724 16.6664 23.5863 15.1309H17.3436Z" fill="#0052B4"/>
<path d="M23.8986 10.4348H13.5655H13.5654V0.101578C13.053 0.034875 12.5307 0 12.0002 0C11.4696 0 10.9473 0.034875 10.435 0.101578V10.4347V10.4347H0.101761C0.0350581 10.9471 0.000183105 11.4695 0.000183105 12C0.000183105 12.5306 0.0350581 13.0529 0.101761 13.5652H10.4349H10.4349V23.8984C10.9473 23.9651 11.4696 24 12.0002 24C12.5307 24 13.053 23.9652 13.5654 23.8984V13.5653V13.5653H23.8986C23.9653 13.0529 24.0002 12.5306 24.0002 12C24.0002 11.4695 23.9653 10.9471 23.8986 10.4348Z" fill="#D80027"/>
<path d="M15.131 15.1309L20.4859 20.4857C20.7321 20.2395 20.9671 19.9821 21.1912 19.7153L16.6068 15.1309H15.131V15.1309Z" fill="#D80027"/>
<path d="M8.87005 15.1309H8.86996L3.5152 20.4856C3.76139 20.7319 4.01878 20.9668 4.28559 21.191L8.87005 16.6064V15.1309Z" fill="#D80027"/>
<path d="M8.87006 8.86862V8.86853L3.51525 3.51367C3.26897 3.75986 3.03403 4.01725 2.80988 4.28406L7.39439 8.86858H8.87006V8.86862Z" fill="#D80027"/>
<path d="M15.131 8.8698L20.4859 3.5149C20.2397 3.26862 19.9823 3.03368 19.7155 2.80957L15.131 7.39409V8.8698Z" fill="#D80027"/>
</g>
<defs>
<clipPath id="clip0_283_2071">
<rect width="24" height="24" fill="white"/>
</clipPath>
</defs>
</svg>
