<svg width="24" height="24" viewBox="0 0 24 24" fill="none" xmlns="http://www.w3.org/2000/svg">
<g clip-path="url(#clip0_48_591)">
<path d="M0 18.7512C0 21.6507 2.3505 24.0012 5.25 24.0012H18.75C21.6495 24.0012 24 21.6507 24 18.7512V16.0039H0V18.7512Z" fill="#F5F5F5"/>
<path d="M18.75 0H5.25C2.3505 0 0 2.3505 0 5.25V7.9973H24V5.25C24 2.3505 21.6495 0 18.75 0Z" fill="#FF4B55"/>
<path d="M24 7.99805H0V16.0034H24V7.99805Z" fill="#41479B"/>
<path d="M10.4266 7.99596H5.87613L5.68652 6.8584H10.6161L10.4266 7.99596Z" fill="#FFE15A"/>
<path d="M5.8291 7.71094L5.87649 7.99533H10.4269L10.4743 7.71094H5.8291Z" fill="#FFD350"/>
<path d="M8.24576 4.2041H8.05615V4.96249H8.24576V4.2041Z" fill="#FFE15A"/>
<path d="M8.43597 4.39258H7.86719V4.58219H8.43597V4.39258Z" fill="#FFE15A"/>
<path d="M10.4413 7.23811C10.4198 7.23811 10.3981 7.23441 10.3767 7.22681C10.2783 7.19109 10.2273 7.08239 10.2631 6.98391L10.6647 5.87555C10.6846 5.82056 10.6799 5.76 10.6519 5.70947C10.637 5.68261 10.602 5.63541 10.5356 5.62116C10.0459 5.51709 9.0968 5.34211 8.24288 5.34211H8.05978C7.20582 5.34211 6.25674 5.51709 5.76689 5.62134C5.70061 5.63541 5.66569 5.68261 5.65078 5.70947C5.62275 5.76 5.61802 5.82056 5.63803 5.87555L6.03956 6.98391C6.07528 7.08244 6.02438 7.19109 5.92599 7.22681C5.82764 7.26202 5.71871 7.21144 5.68313 7.11314L5.2815 6.00478C5.22417 5.84667 5.23791 5.67206 5.31919 5.52558C5.39771 5.38392 5.53205 5.28356 5.68786 5.25042C6.19233 5.14303 7.17117 4.96289 8.05983 4.96289H8.24292C9.13158 4.96289 10.1104 5.14303 10.6147 5.25023C10.7707 5.28356 10.905 5.38392 10.9835 5.52558C11.0648 5.67206 11.0785 5.84662 11.0213 6.00478L10.6196 7.11314C10.5916 7.19016 10.5188 7.23811 10.4413 7.23811Z" fill="#FFE15A"/>
<path d="M8.15201 7.07206C8.04729 7.07206 7.9624 6.98727 7.9624 6.88245V5.34195C7.9624 5.23714 8.04729 5.15234 8.15201 5.15234C8.25673 5.15234 8.34162 5.23714 8.34162 5.34195V6.88245C8.34157 6.98727 8.25668 7.07206 8.15201 7.07206Z" fill="#FFE15A"/>
<path d="M9.46281 7.23811C9.45006 7.23811 9.43708 7.2368 9.4241 7.23422C9.32153 7.21294 9.25567 7.11258 9.277 7.00997L9.50697 5.90161C9.53688 5.75719 9.49005 5.63072 9.46347 5.6085C9.20055 5.51203 8.67311 5.34206 8.20385 5.34206H8.09894C7.62967 5.34206 7.10224 5.51203 6.82961 5.61352C6.81278 5.63072 6.76591 5.75719 6.79581 5.90161L7.02578 7.00997C7.04706 7.11253 6.98125 7.21289 6.87869 7.23422C6.77603 7.25405 6.67567 7.18959 6.65458 7.08703L6.42461 5.97867C6.36728 5.70239 6.45527 5.34858 6.69724 5.2582C7.05967 5.12339 7.59681 4.96289 8.09899 4.96289H8.20389C8.70606 4.96289 9.24321 5.12344 9.60546 5.25802C9.84766 5.34858 9.9356 5.70239 9.87827 5.97867L9.6483 7.08703C9.62974 7.17666 9.55075 7.23811 9.46281 7.23811Z" fill="#FFE15A"/>
<path d="M5.73391 7.14279H10.5687L10.6161 6.8584H5.68652L5.73391 7.14279Z" fill="#FFD350"/>
<path d="M4.54898 7.99512C4.44427 7.99512 4.35938 8.08001 4.35938 8.18473V14.8061C4.35938 16.9085 6.05709 18.6128 8.15142 18.6128C10.2457 18.6128 11.9434 16.9085 11.9434 14.8061V8.18473C11.9434 8.08001 11.8585 7.99512 11.7538 7.99512H4.54898Z" fill="#FF4B55"/>
<path d="M8.53056 14.2527L8.90978 13.3047L8.15139 13.4943L7.393 13.3047L7.77222 14.2527L6.82422 17.4759C6.82422 17.4759 7.393 17.8551 8.15144 17.8551C8.90983 17.8551 9.47866 17.4759 9.47866 17.4759L8.53056 14.2527Z" fill="#F5F5F5"/>
<path d="M6.77832 15.0168L6.44382 15.1004L7.17967 13.7759L6.84821 13.5918L5.95445 15.2006H5.11792V15.5799H5.52536L4.99951 16.0005L5.23632 16.2968L5.68304 15.9394L5.50684 16.4679L5.86661 16.5879L6.21292 15.5489L6.87034 15.3845L6.77832 15.0168Z" fill="#FFE15A"/>
<path d="M6.82438 9.89167L5.95883 9.45892C5.79988 9.37942 5.71743 9.20022 5.76055 9.02777L5.80949 8.83197C5.84347 8.69608 5.74068 8.56445 5.60061 8.56445C5.53522 8.56445 5.47335 8.59417 5.43252 8.64527C4.98346 9.20664 4.73877 9.90414 4.73877 10.6231V14.6317C4.73877 14.6317 5.53054 14.4734 6.24571 13.4331C6.377 13.2421 6.59319 13.1291 6.82358 13.1172L6.44516 14.2525L7.20355 14.4421L7.86716 13.6524L6.82438 9.89167Z" fill="#F5F5F5"/>
<path d="M9.52488 15.0168L9.85943 15.1004L9.12354 13.7759L9.45499 13.5918L10.3488 15.2006H11.1853V15.5799H10.7778L11.3037 16.0005L11.0669 16.2968L10.6202 15.9394L10.7964 16.4679L10.4366 16.5879L10.0903 15.5489L9.43286 15.3845L9.52488 15.0168Z" fill="#FFE15A"/>
<path d="M9.47838 9.89167L10.3439 9.45892C10.5029 9.37942 10.5853 9.20022 10.5422 9.02777L10.4933 8.83197C10.4593 8.69608 10.5621 8.56445 10.7021 8.56445C10.7675 8.56445 10.8294 8.59417 10.8702 8.64527C11.3193 9.20664 11.564 9.90414 11.564 10.6231V14.6317C11.564 14.6317 10.7722 14.4734 10.057 13.4331C9.9257 13.2421 9.70952 13.1291 9.47913 13.1172L9.85755 14.2525L9.09916 14.4421L8.43555 13.6524L9.47838 9.89167Z" fill="#F5F5F5"/>
<path d="M7.01392 8.56543H6.06592L6.35031 8.94465L7.01392 9.13426L6.6347 9.32382H7.20353L7.01392 8.56543Z" fill="#FFE15A"/>
<path d="M9.28922 8.56543H10.2372L9.95278 8.94465L9.28922 9.13426L9.66839 9.32382H9.09961L9.28922 8.56543Z" fill="#FFE15A"/>
<path d="M9.42262 8.41588L8.53073 8.56452L8.15151 9.32291L7.77229 8.56452L6.8804 8.41588C6.77812 8.39882 6.69974 8.50499 6.74605 8.59776L7.20346 9.51257L6.82424 9.89179H8.15146H9.47868L9.09946 9.51257L9.55687 8.59776C9.60332 8.50499 9.5249 8.39882 9.42262 8.41588Z" fill="#F5F5F5"/>
<path d="M8.15158 7.22503C8.30864 7.22503 8.43597 7.09771 8.43597 6.94064C8.43597 6.78358 8.30864 6.65625 8.15158 6.65625C7.99451 6.65625 7.86719 6.78358 7.86719 6.94064C7.86719 7.09771 7.99451 7.22503 8.15158 7.22503Z" fill="#FFBE50"/>
<path d="M8.14762 7.77794C8.27175 7.77794 8.37238 7.7072 8.37238 7.61993C8.37238 7.53266 8.27175 7.46191 8.14762 7.46191C8.02348 7.46191 7.92285 7.53266 7.92285 7.61993C7.92285 7.7072 8.02348 7.77794 8.14762 7.77794Z" fill="#41479B"/>
<path d="M7.02555 7.77794C7.14968 7.77794 7.25031 7.7072 7.25031 7.61993C7.25031 7.53266 7.14968 7.46191 7.02555 7.46191C6.90141 7.46191 6.80078 7.53266 6.80078 7.61993C6.80078 7.7072 6.90141 7.77794 7.02555 7.77794Z" fill="#FF4B55"/>
<path d="M5.90396 7.77794C6.0281 7.77794 6.12873 7.7072 6.12873 7.61993C6.12873 7.53266 6.0281 7.46191 5.90396 7.46191C5.77983 7.46191 5.6792 7.53266 5.6792 7.61993C5.6792 7.7072 5.77983 7.77794 5.90396 7.77794Z" fill="#41479B"/>
<path d="M10.3913 7.77794C10.5154 7.77794 10.616 7.7072 10.616 7.61993C10.616 7.53266 10.5154 7.46191 10.3913 7.46191C10.2671 7.46191 10.1665 7.53266 10.1665 7.61993C10.1665 7.7072 10.2671 7.77794 10.3913 7.77794Z" fill="#41479B"/>
<path d="M9.2692 7.77794C9.39333 7.77794 9.49396 7.7072 9.49396 7.61993C9.49396 7.53266 9.39333 7.46191 9.2692 7.46191C9.14506 7.46191 9.04443 7.53266 9.04443 7.61993C9.04443 7.7072 9.14506 7.77794 9.2692 7.77794Z" fill="#FF4B55"/>
<path d="M9.46896 7.22503C9.62603 7.22503 9.75335 7.09771 9.75335 6.94064C9.75335 6.78358 9.62603 6.65625 9.46896 6.65625C9.3119 6.65625 9.18457 6.78358 9.18457 6.94064C9.18457 7.09771 9.3119 7.22503 9.46896 7.22503Z" fill="#FFBE50"/>
<path d="M10.509 7.22503C10.6661 7.22503 10.7934 7.09771 10.7934 6.94064C10.7934 6.78358 10.6661 6.65625 10.509 6.65625C10.3519 6.65625 10.2246 6.78358 10.2246 6.94064C10.2246 7.09771 10.3519 7.22503 10.509 7.22503Z" fill="#FFBE50"/>
<path d="M6.83468 7.22503C6.99175 7.22503 7.11907 7.09771 7.11907 6.94064C7.11907 6.78358 6.99175 6.65625 6.83468 6.65625C6.67762 6.65625 6.55029 6.78358 6.55029 6.94064C6.55029 7.09771 6.67762 7.22503 6.83468 7.22503Z" fill="#FFBE50"/>
<path d="M5.79464 7.22503C5.95171 7.22503 6.07903 7.09771 6.07903 6.94064C6.07903 6.78358 5.95171 6.65625 5.79464 6.65625C5.63758 6.65625 5.51025 6.78358 5.51025 6.94064C5.51025 7.09771 5.63758 7.22503 5.79464 7.22503Z" fill="#FFBE50"/>
<path d="M8.47782 5.34129C8.51039 5.28532 8.53041 5.2211 8.53041 5.15168C8.53041 4.94224 8.36063 4.77246 8.15119 4.77246C7.94175 4.77246 7.77197 4.94224 7.77197 5.15168C7.77197 5.2211 7.79199 5.28532 7.82457 5.34129H8.47782Z" fill="#41479B"/>
<path d="M8.15149 13.7785C7.36737 13.7785 6.72949 13.1407 6.72949 12.3565V9.79688H9.57349V12.3565C9.57349 13.1407 8.93562 13.7785 8.15149 13.7785Z" fill="#FF4B55"/>
<path d="M9.47881 9.89078V12.3556C9.47881 13.0886 8.88462 13.6828 8.15159 13.6828C7.41861 13.6828 6.82437 13.0886 6.82437 12.3556V9.89078H9.47881ZM9.66842 9.70117H9.47881H6.82437H6.63477V9.89078V12.3556C6.63477 13.192 7.3152 13.8724 8.15159 13.8724C8.98794 13.8724 9.66842 13.192 9.66842 12.3556V9.89078V9.70117Z" fill="#A54B50"/>
<path d="M7.86719 13.6523C7.95888 13.6724 8.05389 13.6836 8.15158 13.6836C8.24931 13.6836 8.34428 13.6724 8.43597 13.6523V9.8916H7.86719V13.6523Z" fill="#F5F5F5"/>
<path d="M9.47866 11.4561H6.82422V12.0248H9.47866V11.4561Z" fill="#F5F5F5"/>
</g>
<defs>
<clipPath id="clip0_48_591">
<rect width="24" height="24" rx="12" fill="white"/>
</clipPath>
</defs>
</svg>
