<svg width="20" height="21" viewBox="0 0 20 21" fill="none" xmlns="http://www.w3.org/2000/svg">
<path d="M10.0059 2.39949C12.6793 2.39949 12.9959 2.41122 14.0473 2.45812C15.0244 2.50111 15.5521 2.66527 15.9038 2.80207C16.369 2.98187 16.7051 3.20074 17.053 3.5486C17.4047 3.90037 17.6197 4.2326 17.7995 4.69771C17.9363 5.04948 18.1004 5.58104 18.1434 6.55427C18.1903 7.60958 18.2021 7.92617 18.2021 10.5957C18.2021 13.2691 18.1903 13.5857 18.1434 14.6371C18.1004 15.6143 17.9363 16.1419 17.7995 16.4937C17.6197 16.9588 17.4008 17.2949 17.053 17.6428C16.7012 17.9946 16.369 18.2095 15.9038 18.3893C15.5521 18.5261 15.0205 18.6903 14.0473 18.7333C12.992 18.7802 12.6754 18.7919 10.0059 18.7919C7.33242 18.7919 7.01583 18.7802 5.96443 18.7333C4.9873 18.6903 4.45964 18.5261 4.10788 18.3893C3.64276 18.2095 3.30662 17.9907 2.95876 17.6428C2.607 17.291 2.39203 16.9588 2.21223 16.4937C2.07543 16.1419 1.91128 15.6104 1.86828 14.6371C1.82138 13.5818 1.80965 13.2652 1.80965 10.5957C1.80965 7.92226 1.82138 7.60567 1.86828 6.55427C1.91128 5.57714 2.07543 5.04948 2.21223 4.69771C2.39203 4.2326 2.6109 3.89646 2.95876 3.5486C3.31053 3.19684 3.64276 2.98187 4.10788 2.80207C4.45964 2.66527 4.99121 2.50111 5.96443 2.45812C7.01583 2.41122 7.33242 2.39949 10.0059 2.39949ZM10.0059 0.597656C7.28943 0.597656 6.94938 0.609382 5.88235 0.656284C4.81923 0.703187 4.08833 0.875163 3.45515 1.1214C2.79461 1.37936 2.23569 1.71941 1.68067 2.27833C1.12175 2.83334 0.781708 3.39226 0.523744 4.0489C0.277506 4.68599 0.105531 5.41298 0.0586281 6.4761C0.0117256 7.54704 0 7.88708 0 10.6035C0 13.32 0.0117256 13.66 0.0586281 14.727C0.105531 15.7902 0.277506 16.521 0.523744 17.1542C0.781708 17.8148 1.12175 18.3737 1.68067 18.9287C2.23569 19.4837 2.79461 19.8277 3.45124 20.0817C4.08833 20.328 4.81532 20.4999 5.87844 20.5468C6.94548 20.5937 7.28552 20.6055 10.002 20.6055C12.7184 20.6055 13.0584 20.5937 14.1255 20.5468C15.1886 20.4999 15.9195 20.328 16.5527 20.0817C17.2093 19.8277 17.7682 19.4837 18.3232 18.9287C18.8782 18.3737 19.2222 17.8148 19.4763 17.1581C19.7225 16.521 19.8945 15.7941 19.9414 14.7309C19.9883 13.6639 20 13.3239 20 10.6074C20 7.89099 19.9883 7.55095 19.9414 6.48392C19.8945 5.42079 19.7225 4.6899 19.4763 4.05671C19.23 3.39226 18.89 2.83334 18.3311 2.27833C17.776 1.72332 17.2171 1.37936 16.5605 1.12531C15.9234 0.879071 15.1964 0.707095 14.1333 0.660193C13.0623 0.609382 12.7223 0.597656 10.0059 0.597656Z" fill="white"/>
<path d="M10.0058 5.46387C7.16822 5.46387 4.86609 7.766 4.86609 10.6036C4.86609 13.4412 7.16822 15.7433 10.0058 15.7433C12.8434 15.7433 15.1455 13.4412 15.1455 10.6036C15.1455 7.766 12.8434 5.46387 10.0058 5.46387ZM10.0058 13.9376C8.1649 13.9376 6.67183 12.4445 6.67183 10.6036C6.67183 8.76268 8.1649 7.26961 10.0058 7.26961C11.8467 7.26961 13.3398 8.76268 13.3398 10.6036C13.3398 12.4445 11.8467 13.9376 10.0058 13.9376Z" fill="white"/>
<path d="M16.5488 5.26047C16.5488 5.92492 16.0094 6.46039 15.3488 6.46039C14.6844 6.46039 14.1489 5.92102 14.1489 5.26047C14.1489 4.59602 14.6883 4.06055 15.3488 4.06055C16.0094 4.06055 16.5488 4.59993 16.5488 5.26047Z" fill="white"/>
</svg>
