<svg width="40" height="41" viewBox="0 0 40 41" fill="none" xmlns="http://www.w3.org/2000/svg">
<rect y="0.28833" width="40" height="40" fill="#FFED00"/>
<path fill-rule="evenodd" clip-rule="evenodd" d="M23 10.75H21.2657L21.8141 12.3953L22.9668 15.8533L19.6684 18.0522L18.1859 13.6047L17.901 12.75H13V15.25H16.099L17.5123 19.4896L16.6925 20.0361C15.7709 19.235 14.5671 18.75 13.25 18.75C10.3505 18.75 8 21.1005 8 24C8 26.8995 10.3505 29.25 13.25 29.25C16.1495 29.25 18.5 26.8995 18.5 24C18.5 23.3215 18.3713 22.6731 18.137 22.0778L23.7863 18.3116L24.1598 19.4324C22.5714 20.3351 21.5 22.0424 21.5 24C21.5 26.8995 23.8505 29.25 26.75 29.25C29.6495 29.25 32 26.8995 32 24C32 21.1005 29.6495 18.75 26.75 18.75C26.6893 18.75 26.6288 18.751 26.5686 18.7531L24.7343 13.25H27V10.75H23ZM14.4554 21.5276L12.3066 22.9601L13.6934 25.0402L15.9599 23.5292C15.9862 23.6822 16 23.8395 16 24C16 25.5188 14.7688 26.75 13.25 26.75C11.7312 26.75 10.5 25.5188 10.5 24C10.5 22.4812 11.7312 21.25 13.25 21.25C13.6824 21.25 14.0914 21.3498 14.4554 21.5276ZM24.9806 21.8947L25.8141 24.3953L28.1859 23.6047L27.4291 21.3345C28.6195 21.6368 29.5 22.7156 29.5 24C29.5 25.5188 28.2688 26.75 26.75 26.75C25.2312 26.75 24 25.5188 24 24C24 23.1551 24.381 22.3992 24.9806 21.8947Z" fill="black"/>
</svg>
