<svg width="40" height="41" viewBox="0 0 40 41" fill="none" xmlns="http://www.w3.org/2000/svg">
<rect y="0.28833" width="40" height="40" fill="#FFED00"/>
<g clip-path="url(#clip0_92_3550)">
<path fill-rule="evenodd" clip-rule="evenodd" d="M20.8362 9.35927L20 8.60669L19.1638 9.35927L9.16379 18.3592L8.75 18.7317V31.5384H31.25V18.7317L30.8362 18.3592L20.8362 9.35927ZM11.25 29.0384V19.8451L20 11.9701L28.75 19.8451V29.0384H11.25ZM21.4277 16.9234H18.5714L17.9091 18.3406L17.5193 18.5656L15.9608 18.4313L14.5327 20.905L15.4292 22.1879L15.4292 22.6367L14.5332 23.9197L15.9614 26.3934L17.5202 26.2584L17.9093 26.483L18.5714 27.9002H21.4277L22.0906 26.4839L22.4814 26.2583L24.0388 26.3934L25.467 23.9198L24.5723 22.6383V22.1857L25.4676 20.905L24.0394 18.4314L22.4818 18.5654L22.0903 18.3394L21.4277 16.9234ZM19.0007 23.3401V21.3401H21.0007V23.3401H19.0007Z" fill="black"/>
</g>
<defs>
<clipPath id="clip0_92_3550">
<rect width="24" height="24" fill="white" transform="translate(8 8.28833)"/>
</clipPath>
</defs>
</svg>
