<svg width="40" height="41" viewBox="0 0 40 41" fill="none" xmlns="http://www.w3.org/2000/svg">
<rect y="0.28833" width="40" height="40" fill="#FFED00"/>
<g clip-path="url(#clip0_92_3576)">
<path fill-rule="evenodd" clip-rule="evenodd" d="M23.7501 8.52026L23.7495 10.2888L23.7483 13.9272L24.4995 14.6777L25.2499 13.9273V8.52045L26.9166 9.10971C27.9265 9.46676 28.8546 10.0466 29.6265 10.8186C30.9862 12.1782 31.75 14.0223 31.75 15.9451C31.75 17.8679 30.9862 19.712 29.6265 21.0716C29.2094 21.4887 28.7466 21.8498 28.25 22.1499V31.5382H20.75V22.1499C20.2534 21.8498 19.7906 21.4887 19.3735 21.0716C18.0138 19.712 17.25 17.8679 17.25 15.9451C17.25 14.0223 18.0138 12.1782 19.3735 10.8186C20.1452 10.0468 21.0731 9.46706 22.0827 9.10998L23.7501 8.52026ZM27.7499 12.4809V14.9629L27.3838 15.329L25.3838 17.329L24.5003 18.2125L23.6164 17.3294L21.6146 15.3294L21.248 14.963L21.2481 14.4447L21.2488 12.4822C21.2124 12.5163 21.1766 12.551 21.1413 12.5864C20.2505 13.4771 19.75 14.6853 19.75 15.9451C19.75 17.2049 20.2505 18.413 21.1413 19.3038C21.5444 19.7069 22.0124 20.0301 22.5208 20.2631L23.25 20.5973V29.0382H25.75V20.5973L26.4792 20.2631C26.9877 20.0301 27.4557 19.7069 27.8588 19.3038C28.7496 18.413 29.25 17.2049 29.25 15.9451C29.25 14.6853 28.7496 13.4771 27.8588 12.5864C27.823 12.5506 27.7867 12.5154 27.7499 12.4809ZM11.25 17.3058L9.11733 15.1718L8.61719 14.6714L8.78881 13.985L9.78894 9.98501L10.0257 9.03822H14.9776L15.2143 9.98509L16.2142 13.9851L16.3858 14.6719L15.8851 15.1724L13.75 17.3062V21.2643H16.0002L16.0001 31.5382H9.00001L9.00009 21.2643H11.25V17.3058ZM11.3858 13.905L11.9775 11.5382H13.0256L13.6171 13.9045L12.5005 15.0205L11.3858 13.905Z" fill="black"/>
</g>
<defs>
<clipPath id="clip0_92_3576">
<rect width="24" height="24" fill="white" transform="translate(8 8.28833)"/>
</clipPath>
</defs>
</svg>
