<svg width="40" height="41" viewBox="0 0 40 41" fill="none" xmlns="http://www.w3.org/2000/svg">
<rect y="0.28833" width="40" height="40" fill="#FFED00"/>
<g clip-path="url(#clip0_92_3565)">
<path fill-rule="evenodd" clip-rule="evenodd" d="M23 11.7883V13.7883C23.6271 13.7883 24.5124 14.2149 25.2929 14.9954C26.0734 15.776 26.5 16.6612 26.5 17.2883H28.5C28.5 16.6612 28.9266 15.776 29.7071 14.9954C30.4876 14.2149 31.3729 13.7883 32 13.7883V11.7883C31.3729 11.7883 30.4876 11.3618 29.7071 10.5812C28.9266 9.80068 28.5 8.91547 28.5 8.28833H26.5C26.5 8.91547 26.0734 9.80068 25.2929 10.5812C24.5124 11.3618 23.6271 11.7883 23 11.7883ZM26 22.7883H23.8346L22.9839 18.1094L22.8346 17.2883H11.1654L11.0161 18.1094L10.1654 22.7883H8V30.2883H10V32.2883H13V30.2883H21V32.2883H24V30.2883H26V22.7883ZM12.1982 22.7883H21.8018L21.1654 19.2883H12.8346L12.1982 22.7883Z" fill="black"/>
<path fill-rule="evenodd" clip-rule="evenodd" d="M29.4371 11.627L27.0204 14.6705L25.5156 13.1545L25.9888 12.6849L26.9649 13.6683L28.915 11.2124L29.4371 11.627Z" fill="#FFED00"/>
</g>
<defs>
<clipPath id="clip0_92_3565">
<rect width="24" height="24" fill="white" transform="translate(8 8.28833)"/>
</clipPath>
</defs>
</svg>
