<svg width="40" height="41" viewBox="0 0 40 41" fill="none" xmlns="http://www.w3.org/2000/svg">
<rect y="0.28833" width="40" height="40" fill="#FFED00"/>
<g clip-path="url(#clip0_92_3565)">
<path fill-rule="evenodd" clip-rule="evenodd" d="M13 8.28833H16.5176L16.8837 8.65445L18.7251 10.4958C19.1255 10.3612 19.5542 10.2883 19.9999 10.2883C20.4456 10.2883 20.8743 10.3612 21.2747 10.4958L23.116 8.65445L23.4821 8.28833H26.9999V10.7883H24.5177L23.2913 12.0147C23.5072 12.3266 23.6798 12.6707 23.8007 13.0383H29.5461L29.2221 14.5502L26.2221 28.5502L26.0104 29.5383H22.9999V32.2883H16.9998V29.5383H13.9893L13.7776 28.5502L10.7776 14.5502L10.4536 13.0383H16.199C16.3199 12.6707 16.4925 12.3266 16.7084 12.0147L15.4821 10.7883H13V8.28833ZM16.199 15.5383H13.5461L16.0104 27.0383H16.9998V22.2883H22.9999V27.0383H23.9893L26.4536 15.5383H23.8007C23.2758 17.1353 21.7725 18.2883 19.9999 18.2883C18.2273 18.2883 16.7239 17.1353 16.199 15.5383Z" fill="black"/>
</g>
<defs>
<clipPath id="clip0_92_3565">
<rect width="24" height="24" fill="white" transform="translate(8 8.28833)"/>
</clipPath>
</defs>
</svg>
