<svg width="24" height="25" viewBox="0 0 24 25" fill="none" xmlns="http://www.w3.org/2000/svg">
<mask id="mask0_52_5714" style="mask-type:alpha" maskUnits="userSpaceOnUse" x="0" y="0" width="24" height="25">
<rect y="0.5" width="24" height="24" fill="#D9D9D9"/>
</mask>
<g mask="url(#mask0_52_5714)">
<path d="M19.95 21.5C17.8667 21.5 15.8042 21.05 13.7625 20.15C11.7208 19.25 9.86667 17.9667 8.2 16.3C6.53333 14.6333 5.25 12.7833 4.35 10.75C3.45 8.71667 3 6.65 3 4.55V3.5H8.9L9.825 8.525L6.975 11.4C7.34167 12.05 7.75 12.6667 8.2 13.25C8.65 13.8333 9.13333 14.375 9.65 14.875C10.1333 15.3583 10.6625 15.8208 11.2375 16.2625C11.8125 16.7042 12.4333 17.1167 13.1 17.5L16 14.6L21 15.625V21.5H19.95ZM6.025 9.5L7.675 7.85L7.25 5.5H5.025C5.10833 6.25 5.23333 6.95417 5.4 7.6125C5.56667 8.27083 5.775 8.9 6.025 9.5ZM14.975 18.45C15.6417 18.7333 16.3125 18.9583 16.9875 19.125C17.6625 19.2917 18.3333 19.4 19 19.45V17.25L16.65 16.775L14.975 18.45Z" fill="#FFED00"/>
</g>
</svg>
