<svg xmlns="http://www.w3.org/2000/svg" fill="none" viewBox="0 0 32 32" id="Email-Attachment-Image--Streamline-Sharp.svg" height="32" width="32"><desc>Email Attachment Image Streamline Icon: https://streamlinehq.com</desc><g id="email-attachment-image--mail-send-email-attachment-file-image-png-jpg"><path id="Rectangle 842" stroke="#000000" d="M16 24.1536H29.7984V1.5744H7.219199999999999V12.863999999999999" stroke-width="2"></path><path id="Vector 2537" stroke="#000000" d="M12.236799999999999 30.425599999999996V21.644799999999996C12.236799999999999 18.873733333333334 9.9904 16.6272 7.219199999999999 16.6272S2.2016 18.873733333333334 2.2016 21.644799999999996V26.662399999999998C2.2016 28.048000000000002 3.3247999999999998 29.1712 4.7104 29.1712S7.219199999999999 28.048000000000002 7.219199999999999 26.662399999999998V20.3904" stroke-width="2"></path><path id="Vector 2867" stroke="#000000" d="M29.7984 15.3728L22.899199999999997 8.4736L14.7456 16.6272" stroke-width="2"></path><path id="Ellipse 679" stroke="#000000" d="M12.236799999999999 7.8464C12.236799999999999 8.812 13.282133333333334 9.4156 14.118400000000001 8.9328C14.506533333333332 8.708666666666666 14.7456 8.294533333333334 14.7456 7.8464C14.7456 6.880799999999999 13.700266666666666 6.277200000000001 12.863999999999999 6.76C12.475866666666665 6.984133333333333 12.236799999999999 7.398266666666666 12.236799999999999 7.8464" stroke-width="2"></path></g></svg>