<svg width="24" height="25" viewBox="0 0 24 25" fill="none" xmlns="http://www.w3.org/2000/svg">
<path fill-rule="evenodd" clip-rule="evenodd" d="M6.62763 1.50317H6.00987L5.63464 1.99392L0.762322 8.36623L0.220215 9.07523L0.714794 9.81817L9.34773 22.7862L9.71874 23.3435H14.2812L14.6522 22.7862L23.2851 9.81817L23.7797 9.07523L23.2376 8.36623L18.3653 1.99392L17.99 1.50317H6.62763ZM6.67509 4.74904L4.2846 7.87548H9.31091L6.67509 4.74904ZM14.6885 7.87548H19.7153L17.3246 4.74874L14.6885 7.87548ZM14.6832 4.00317H9.31618L11.9997 7.1862L14.6832 4.00317ZM4.0891 10.3755L10.7499 20.3811V10.3755H4.0891ZM19.9108 10.3755L13.2499 20.3811V10.3755H19.9108Z" fill="#FFED00"/>
</svg>
