<svg width="24" height="25" viewBox="0 0 24 25" fill="none" xmlns="http://www.w3.org/2000/svg">
<g clip-path="url(#clip0_210_2911)">
<path fill-rule="evenodd" clip-rule="evenodd" d="M19 4.3479C19 3.65754 19.5596 3.0979 20.25 3.0979C20.9404 3.0979 21.5 3.65754 21.5 4.3479C21.5 5.03826 20.9404 5.5979 20.25 5.5979C19.5596 5.5979 19 5.03826 19 4.3479ZM20.25 0.5979C18.1789 0.5979 16.5 2.27683 16.5 4.3479C16.5 6.41897 18.1789 8.0979 20.25 8.0979C22.3211 8.0979 24 6.41897 24 4.3479C24 2.27683 22.3211 0.5979 20.25 0.5979ZM10.6253 1.96402L9.74138 1.08013L8.85749 1.96402L2.85318 7.96833C-0.951059 11.7726 -0.951061 17.9405 2.85318 21.7447C6.65742 25.549 12.8253 25.549 16.6296 21.7447C20.4338 17.9405 20.4338 11.7726 16.6296 7.96833L10.6253 1.96402ZM4.62095 9.73609L9.74138 4.61567L14.8618 9.7361C17.6897 12.564 17.6897 17.149 14.8618 19.9769C12.0339 22.8049 7.44888 22.8049 4.62095 19.9769C1.79302 17.149 1.79302 12.564 4.62095 9.73609Z" fill="#FFED00"/>
</g>
<defs>
<clipPath id="clip0_210_2911">
<rect width="24" height="24" fill="white" transform="translate(0 0.5979)"/>
</clipPath>
</defs>
</svg>
