<svg width="24" height="25" viewBox="0 0 24 25" fill="none" xmlns="http://www.w3.org/2000/svg">
<g clip-path="url(#clip0_205_5892)">
<path fill-rule="evenodd" clip-rule="evenodd" d="M11.9999 1.85163L12.7456 0.848385L11.9999 0.294189L11.2543 0.848385L11.9999 1.85163ZM11.4379 3.91485C11.6451 3.73783 11.834 3.58039 11.9999 3.4445C12.1659 3.58039 12.3548 3.73783 12.562 3.91485C13.3614 4.59782 14.4234 5.56449 15.481 6.70314C16.5424 7.84581 17.5746 9.13512 18.3355 10.4616C19.1022 11.7981 19.5438 13.0862 19.5438 14.2502C19.5438 18.4165 16.1663 21.7941 11.9999 21.7941C7.83357 21.7941 4.45605 18.4165 4.45605 14.2502C4.45605 13.0862 4.89766 11.7981 5.66437 10.4616C6.42529 9.13512 7.45747 7.84581 8.51886 6.70314C9.57652 5.56449 10.6385 4.59782 11.4379 3.91485ZM11.9999 1.85163C11.2543 0.848385 11.2545 0.848179 11.2543 0.848385L11.253 0.849312L11.251 0.850839L11.2445 0.855685L11.2222 0.872475C11.2032 0.886795 11.1761 0.907336 11.1414 0.933879C11.0721 0.986957 10.9724 1.06408 10.8467 1.16348C10.5954 1.36219 10.2396 1.65045 9.81394 2.01409C8.96449 2.73982 7.82796 3.77355 6.68715 5.00171C5.55007 6.22585 4.38376 7.66976 3.49583 9.21763C2.61368 10.7554 1.95605 12.4828 1.95605 14.2502C1.95605 19.7973 6.45286 24.2941 11.9999 24.2941C17.547 24.2941 22.0438 19.7973 22.0438 14.2502C22.0438 12.4828 21.3862 10.7554 20.5041 9.21763C19.6161 7.66976 18.4498 6.22585 17.3127 5.00171C16.1719 3.77355 15.0354 2.73982 14.1859 2.01409C13.7603 1.65045 13.4045 1.36219 13.1532 1.16348C13.0275 1.06408 12.9278 0.986957 12.8585 0.933879C12.8238 0.907336 12.7967 0.886795 12.7777 0.872475L12.7554 0.855685L12.7489 0.850839L12.7468 0.849312C12.7465 0.849106 12.7456 0.848385 11.9999 1.85163ZM12.0002 17.9156C9.99241 17.9156 8.36475 16.2879 8.36475 14.2801H5.86475C5.86475 17.6686 8.6117 20.4156 12.0002 20.4156V17.9156Z" fill="#FFED00"/>
</g>
<defs>
<clipPath id="clip0_205_5892">
<rect width="24" height="24" fill="white" transform="translate(0 0.5979)"/>
</clipPath>
</defs>
</svg>
