<svg width="24" height="25" viewBox="0 0 24 25" fill="none" xmlns="http://www.w3.org/2000/svg">
<g clip-path="url(#clip0_76_7533)">
<path fill-rule="evenodd" clip-rule="evenodd" d="M12.25 0.289307H3.75V7.28931H1V24.2893H15V7.28931H12.25V0.289307ZM9.75 7.28931V2.78931H6.25V7.28931H9.75ZM21.4986 3.79041C22.4649 3.78981 23.248 3.00629 23.248 2.03986C23.248 1.07305 22.4643 0.289429 21.4975 0.289429C20.5312 0.290023 19.748 1.07354 19.748 2.03998C19.748 3.00678 20.5318 3.79041 21.4986 3.79041ZM16.4992 6.29041C17.4659 6.29 18.2495 5.50616 18.2495 4.5393C18.2495 3.57219 17.4655 2.78821 16.4984 2.78821C15.5316 2.78862 14.748 3.57246 14.748 4.53932C14.748 5.50643 15.532 6.29041 16.4992 6.29041ZM19.748 7.03778C19.748 6.07098 20.5318 5.28723 21.4986 5.28723C22.4649 5.28782 23.248 6.07147 23.248 7.03791C23.248 8.00471 22.4643 8.78833 21.4975 8.78833C20.5312 8.78774 19.748 8.00422 19.748 7.03778ZM13 9.5957H3V22.5957H13V9.5957Z" fill="#FFED00"/>
</g>
<defs>
<clipPath id="clip0_76_7533">
<rect width="24" height="24" fill="white" transform="translate(0 0.5979)"/>
</clipPath>
</defs>
</svg>
