<svg width="24" height="25" viewBox="0 0 24 25" fill="none" xmlns="http://www.w3.org/2000/svg">
<g clip-path="url(#clip0_210_2926)">
<path fill-rule="evenodd" clip-rule="evenodd" d="M4.51685 0.598145L5.92982 3.70159L9.03345 5.11474L5.9298 6.52762L4.51685 9.63102L3.10365 6.52764L0 5.11474L3.10363 3.70157L4.51685 0.598145ZM6.50017 11.7386L7.57198 13.5251L8.91112 15.7572L11.1432 17.0965L12.9296 18.1684L11.1431 19.2402L8.91109 20.5793L7.57198 22.8113L6.50017 24.5978L5.42825 22.8114L4.08894 20.5793L1.85692 19.2402L0.0704367 18.1684L1.85684 17.0965L4.08892 15.7571L5.42825 13.5251L6.50017 11.7386ZM6.50003 16.5978L6.07185 17.3114L5.91108 17.5793L5.64316 17.7401L4.92956 18.1682L5.64308 18.5963L5.91106 18.7571L6.07185 19.0251L6.50003 19.7386L6.92811 19.0251L7.08891 18.7571L7.35692 18.5963L8.07044 18.1682L7.35684 17.7401L7.08888 17.5793L6.92811 17.3113L6.50003 16.5978ZM16.5089 3.55271L15.3842 1.23213L14.2593 3.55263L12.571 7.03533L9.08872 8.72326L6.76793 9.84819L9.08881 10.9729L12.571 12.6605L14.2593 16.1432L15.3842 18.4637L16.5089 16.1431L18.1969 12.6605L21.6791 10.973L24 9.84819L21.6792 8.72325L18.1969 7.03535L16.5089 3.55271ZM14.6314 8.51621L15.384 6.96367L16.1364 8.51613L16.3257 8.90653L16.7161 9.09577L18.2679 9.84797L16.7161 10.6L16.3257 10.7892L16.1364 11.1797L15.384 12.7321L14.6314 11.1796L14.4421 10.7892L14.0517 10.6L12.5 9.84797L14.0518 9.09576L14.4421 8.90655L14.6314 8.51621Z" fill="#FFED00"/>
</g>
<defs>
<clipPath id="clip0_210_2926">
<rect width="24" height="24" fill="white" transform="translate(0 0.5979)"/>
</clipPath>
</defs>
</svg>
