<svg width="18" height="21" viewBox="0 0 18 21" fill="none" xmlns="http://www.w3.org/2000/svg">
<path d="M6.07686 20.5977C9.43254 20.5977 12.1537 17.8777 12.1537 14.5208V6.2998C13.1402 7.80704 14.8198 8.7145 16.6216 8.7145C16.7856 8.7133 16.9496 8.70492 17.1136 8.68936H17.116V5.36121C14.5385 5.17326 12.4674 3.16679 12.1968 0.597656H9.33198L9.30205 14.5603C9.30205 16.2735 7.78882 17.6227 6.07566 17.6227C4.3625 17.6227 2.97498 16.234 2.97498 14.522C2.97498 12.81 4.3637 11.4213 6.07566 11.4213C6.20376 11.4213 6.32707 11.4441 6.45157 11.4596V8.46429C6.32707 8.45591 6.20256 8.44514 6.07566 8.44514C2.71998 8.44514 0 11.1651 0 14.5208C0 17.8765 2.71998 20.5977 6.07686 20.5977Z" fill="white"/>
</svg>
