<svg width="20" height="15" viewBox="0 0 20 15" fill="none" xmlns="http://www.w3.org/2000/svg">
<path d="M19.5818 2.75225C19.4687 2.32676 19.2459 1.93843 18.9356 1.62613C18.6253 1.31382 18.2384 1.0885 17.8136 0.972701C16.25 0.552246 10 0.552246 10 0.552246C10 0.552246 3.75 0.552246 2.18636 0.972701C1.76161 1.0885 1.37472 1.31382 1.06441 1.62613C0.754097 1.93843 0.531255 2.32676 0.418182 2.75225C4.96705e-08 4.3227 0 7.5977 0 7.5977C0 7.5977 4.96705e-08 10.8727 0.418182 12.4432C0.531255 12.8686 0.754097 13.257 1.06441 13.5693C1.37472 13.8816 1.76161 14.1069 2.18636 14.2227C3.75 14.6432 10 14.6432 10 14.6432C10 14.6432 16.25 14.6432 17.8136 14.2227C18.2384 14.1069 18.6253 13.8816 18.9356 13.5693C19.2459 13.257 19.4687 12.8686 19.5818 12.4432C20 10.8727 20 7.5977 20 7.5977C20 7.5977 20 4.3227 19.5818 2.75225Z" fill="white"/>
<path d="M7.95459 10.5718V4.62402L13.1819 7.59789L7.95459 10.5718Z" fill="#1E1E1E"/>
</svg>
