<svg width="24" height="25" viewBox="0 0 24 25" fill="none" xmlns="http://www.w3.org/2000/svg">
<g clip-path="url(#clip0_76_7520)">
<path fill-rule="evenodd" clip-rule="evenodd" d="M11.9999 1.65364L12.7456 0.650387L11.9999 0.0961914L11.2543 0.650387L11.9999 1.65364ZM11.4379 3.71686C11.6451 3.53984 11.834 3.3824 11.9999 3.24651C12.1659 3.3824 12.3548 3.53984 12.562 3.71686C13.3614 4.39983 14.4234 5.3665 15.481 6.50515C16.5424 7.64782 17.5746 8.93713 18.3355 10.2636C19.1022 11.6001 19.5438 12.8882 19.5438 14.0522C19.5438 18.2185 16.1663 21.5961 11.9999 21.5961C7.83357 21.5961 4.45605 18.2185 4.45605 14.0522C4.45605 12.8882 4.89766 11.6001 5.66437 10.2636C6.42529 8.93713 7.45747 7.64782 8.51886 6.50515C9.57652 5.3665 10.6385 4.39983 11.4379 3.71686ZM11.9999 1.65364C11.2543 0.650387 11.2545 0.650181 11.2543 0.650387L11.253 0.651314L11.251 0.652841L11.2445 0.657687L11.2222 0.674477C11.2032 0.688797 11.1761 0.709338 11.1414 0.735881C11.0721 0.788959 10.9724 0.866081 10.8467 0.965482C10.5954 1.1642 10.2396 1.45246 9.81394 1.8161C8.96449 2.54183 7.82796 3.57556 6.68715 4.80372C5.55007 6.02786 4.38376 7.47177 3.49583 9.01964C2.61368 10.5574 1.95605 12.2848 1.95605 14.0522C1.95605 19.5993 6.45286 24.0961 11.9999 24.0961C17.547 24.0961 22.0438 19.5993 22.0438 14.0522C22.0438 12.2848 21.3862 10.5574 20.5041 9.01964C19.6161 7.47177 18.4498 6.02786 17.3127 4.80372C16.1719 3.57556 15.0354 2.54183 14.1859 1.8161C13.7603 1.45246 13.4045 1.1642 13.1532 0.965482C13.0275 0.866081 12.9278 0.788959 12.8585 0.735881C12.8238 0.709338 12.7967 0.688797 12.7777 0.674477L12.7554 0.657687L12.7489 0.652841L12.7468 0.651314C12.7465 0.651108 12.7456 0.650387 11.9999 1.65364ZM11.9759 7.87685L8.47589 12.8778L7.09945 14.8445H12.0991L9.97598 17.8775L12.024 19.3112L15.524 14.3114L16.9008 12.3445H11.9006L14.0241 9.31031L11.9759 7.87685Z" fill="#FFED00"/>
</g>
<defs>
<clipPath id="clip0_76_7520">
<rect width="24" height="24" fill="white" transform="translate(0 0.0979004)"/>
</clipPath>
</defs>
</svg>
